<?xml version="1.0" encoding="UTF-8"?>
<!DOCTYPE svg PUBLIC "-//W3C//DTD SVG 1.1//EN" "http://www.w3.org/Graphics/SVG/1.1/DTD/svg11.dtd">
<svg xmlns="http://www.w3.org/2000/svg" version="1.1" width="512px" height="512px" style="shape-rendering:geometricPrecision; text-rendering:geometricPrecision; image-rendering:optimizeQuality; fill-rule:evenodd; clip-rule:evenodd" xmlns:xlink="http://www.w3.org/1999/xlink">
<g><path style="opacity:0.995" fill="#ff4b25" d="M 233.5,-0.5 C 240.833,-0.5 248.167,-0.5 255.5,-0.5C 255.5,33.1667 255.5,66.8333 255.5,100.5C 196.903,102.45 152.237,128.117 121.5,177.5C 91.9269,161.261 62.5935,144.595 33.5,127.5C 78.9575,52.1019 145.624,9.43526 233.5,-0.5 Z"/></g>
<g><path style="opacity:1" fill="#d93f21" d="M 255.5,-0.5 C 262.833,-0.5 270.167,-0.5 277.5,-0.5C 331.17,5.00464 378.837,24.838 420.5,59C 429.635,65.7372 431.802,74.2372 427,84.5C 409.5,102 392,119.5 374.5,137C 368.981,139.835 363.314,140.169 357.5,138C 328.084,113.358 294.084,100.858 255.5,100.5C 255.5,66.8333 255.5,33.1667 255.5,-0.5 Z"/></g>
<g><path style="opacity:0.994" fill="#fed400" d="M 33.5,127.5 C 62.5935,144.595 91.9269,161.261 121.5,177.5C 95.951,224.37 93.7844,272.37 115,321.5C 116.994,325.643 119.161,329.643 121.5,333.5C 92.194,350.155 62.8607,366.821 33.5,383.5C 14.5466,350.973 3.21323,315.973 -0.5,278.5C -0.5,263.167 -0.5,247.833 -0.5,232.5C 3.21323,195.027 14.5466,160.027 33.5,127.5 Z"/></g>
<g><path style="opacity:0.992" fill="#167de6" d="M 511.5,237.5 C 511.5,251.833 511.5,266.167 511.5,280.5C 501.2,367.489 458.533,433.156 383.5,477.5C 366.845,448.194 350.179,418.861 333.5,389.5C 364.53,371.137 386.53,345.137 399.5,311.5C 359.165,311.667 318.832,311.5 278.5,311C 273.09,309.257 269.256,305.757 267,300.5C 266.333,274.167 266.333,247.833 267,221.5C 268.779,217.388 271.612,214.222 275.5,212C 349.11,210.343 422.776,210.009 496.5,211C 500.813,212.306 504.313,214.806 507,218.5C 509.153,224.8 510.653,231.133 511.5,237.5 Z"/></g>
<g><path style="opacity:0.995" fill="#12b346" d="M 121.5,333.5 C 152.237,382.883 196.903,408.55 255.5,410.5C 255.5,444.167 255.5,477.833 255.5,511.5C 248.167,511.5 240.833,511.5 233.5,511.5C 145.624,501.565 78.9575,458.898 33.5,383.5C 62.8607,366.821 92.194,350.155 121.5,333.5 Z"/></g>
<g><path style="opacity:1" fill="#0f993e" d="M 333.5,389.5 C 350.179,418.861 366.845,448.194 383.5,477.5C 350.68,496.662 315.347,507.996 277.5,511.5C 270.167,511.5 262.833,511.5 255.5,511.5C 255.5,477.833 255.5,444.167 255.5,410.5C 283.488,410.671 309.488,403.671 333.5,389.5 Z"/></g>
</svg>
